# xmcd
#
# Track frame offsets: 
#        150
#        17753
#        32425
#        47812
#        66745
#        79230
#        94165
#        109361
#        124451
#        141850
#        157626
#        174478
#        194771
#
# Disc length: 2798 seconds
#
# Revision: 0
# Processed by: cddbd v1.5.2PL0 Copyright (c) Steve Scherf et al.
# Submitted via: ExactAudioCopy v0.99pb5
#
DISCID=b90aec0d
DTITLE=Brother Magnum and The Razor Bumps - Fire and Steel
DYEAR=2011
DGENRE=Blues
TTITLE0=I'm Tired
TTITLE1=Love Me Woman
TTITLE2=Fire And Steel
TTITLE3=3Rd Degree Love Burns
TTITLE4=Thank You
TTITLE5=Feel Good
TTITLE6=Damn Me...Still Nee-Mo Money
TTITLE7=Working Man Jam
TTITLE8=Don't Make A Fool Out Of Me
TTITLE9=Party Tonight
TTITLE10=Are You Stoned
TTITLE11=Mr. Mojo (Theme Song)
TTITLE12=Bonus Track
EXTD=
EXTT0=
EXTT1=
EXTT2=
EXTT3=
EXTT4=
EXTT5=
EXTT6=
EXTT7=
EXTT8=
EXTT9=
EXTT10=
EXTT11=
EXTT12=
PLAYORDER=
